<svg width="30" height="30" viewBox="0 0 30 30" fill="none" xmlns="http://www.w3.org/2000/svg">
<path d="M13.125 9.375L15.625 13.125L13.125 16.875H9.375L6.875 13.125L9.375 9.375H13.125Z" stroke="white" stroke-width="1.25" stroke-linecap="round" stroke-linejoin="round"/>
<path d="M19.375 13.125L21.875 9.375L19.375 5.625H15.625L13.125 9.375L15.625 13.125M19.375 13.125H15.625M19.375 13.125L21.875 16.875M15.625 13.125L13.125 16.875L15.625 20.625M19.375 20.625L21.875 24.375M19.375 20.625L21.875 16.875M19.375 20.625H15.625M6.875 5.625L9.375 9.375M15.625 20.625L14.375 22.5M9.375 16.875L8.125 18.75M6.875 13.125H5.625M21.875 16.875H25.625" stroke="white" stroke-width="1.25" stroke-linecap="round" stroke-linejoin="round"/>
<path d="M13.125 25C13.4702 25 13.75 24.7202 13.75 24.375C13.75 24.0298 13.4702 23.75 13.125 23.75C12.7798 23.75 12.5 24.0298 12.5 24.375C12.5 24.7202 12.7798 25 13.125 25Z" fill="white"/>
<path d="M6.875 21.25C7.22018 21.25 7.5 20.9702 7.5 20.625C7.5 20.2798 7.22018 20 6.875 20C6.52982 20 6.25 20.2798 6.25 20.625C6.25 20.9702 6.52982 21.25 6.875 21.25Z" fill="white"/>
<path d="M3.125 13.75C3.47018 13.75 3.75 13.4702 3.75 13.125C3.75 12.7798 3.47018 12.5 3.125 12.5C2.77982 12.5 2.5 12.7798 2.5 13.125C2.5 13.4702 2.77982 13.75 3.125 13.75Z" fill="white"/>
</svg>
