<svg width="24" height="24" viewBox="0 0 24 24" fill="none" xmlns="http://www.w3.org/2000/svg">
<path d="M12 5.00005C12.0011 4.60008 11.9223 4.20391 11.7681 3.83485C11.614 3.46579 11.3876 3.13128 11.1022 2.851C10.8169 2.57072 10.4784 2.35032 10.1066 2.20278C9.73485 2.05524 9.33733 1.98353 8.93745 1.99186C8.53756 2.0002 8.14338 2.08841 7.77809 2.25132C7.4128 2.41422 7.08377 2.64853 6.81035 2.94045C6.53694 3.23238 6.32466 3.57604 6.186 3.9512C6.04735 4.32637 5.98511 4.72548 6.00295 5.12505C5.41515 5.27619 4.86945 5.5591 4.40718 5.95236C3.94491 6.34562 3.57819 6.83892 3.3348 7.3949C3.0914 7.95087 2.97771 8.55494 3.00234 9.16136C3.02697 9.76778 3.18927 10.3606 3.47695 10.8951C2.97113 11.306 2.57338 11.8343 2.31829 12.434C2.0632 13.0337 1.95851 13.6866 2.01332 14.336C2.06812 14.9854 2.28077 15.6116 2.63276 16.1601C2.98475 16.7085 3.46542 17.1627 4.03295 17.4831C3.96287 18.0253 4.00469 18.5761 4.15584 19.1016C4.30699 19.627 4.56425 20.1159 4.91174 20.538C5.25923 20.9601 5.68956 21.3065 6.17617 21.5558C6.66278 21.8051 7.19533 21.952 7.74093 21.9874C8.28653 22.0228 8.83359 21.946 9.34834 21.7617C9.86309 21.5774 10.3346 21.2895 10.7337 20.9158C11.1328 20.5421 11.4511 20.0906 11.6689 19.5891C11.8867 19.0876 11.9994 18.5468 12 18V5.00005Z" stroke="#5C00FF" stroke-width="2" stroke-linecap="round" stroke-linejoin="round"/>
<path d="M12 5.00005C11.9988 4.60008 12.0776 4.20391 12.2318 3.83485C12.3859 3.46579 12.6123 3.13128 12.8977 2.851C13.183 2.57072 13.5215 2.35032 13.8933 2.20278C14.2651 2.05524 14.6626 1.98353 15.0625 1.99186C15.4623 2.0002 15.8565 2.08841 16.2218 2.25132C16.5871 2.41422 16.9161 2.64853 17.1895 2.94045C17.463 3.23238 17.6752 3.57604 17.8139 3.9512C17.9526 4.32637 18.0148 4.72548 17.997 5.12505C18.5848 5.27619 19.1305 5.5591 19.5927 5.95236C20.055 6.34562 20.4217 6.83892 20.6651 7.3949C20.9085 7.95087 21.0222 8.55494 20.9976 9.16136C20.9729 9.76778 20.8106 10.3606 20.523 10.8951C21.0288 11.306 21.4265 11.8343 21.6816 12.434C21.9367 13.0337 22.0414 13.6866 21.9866 14.336C21.9318 14.9854 21.7191 15.6116 21.3671 16.1601C21.0152 16.7085 20.5345 17.1627 19.967 17.4831C20.037 18.0253 19.9952 18.5761 19.8441 19.1016C19.6929 19.627 19.4357 20.1159 19.0882 20.538C18.7407 20.9601 18.3103 21.3065 17.8237 21.5558C17.3371 21.8051 16.8046 21.952 16.259 21.9874C15.7134 22.0228 15.1663 21.946 14.6516 21.7617C14.1368 21.5774 13.6653 21.2895 13.2662 20.9158C12.8671 20.5421 12.5488 20.0906 12.331 19.5891C12.1132 19.0876 12.0005 18.5468 12 18V5.00005Z" stroke="#5C00FF" stroke-width="2" stroke-linecap="round" stroke-linejoin="round"/>
<path d="M14.9999 13C14.1604 12.7047 13.4272 12.167 12.8933 11.455C12.3593 10.743 12.0484 9.88867 11.9999 9C11.9515 9.88867 11.6406 10.743 11.1066 11.455C10.5726 12.167 9.83948 12.7047 8.99993 13M17.5989 6.5C17.841 6.08059 17.9778 5.60882 17.9979 5.125M6.00293 5.125C6.0227 5.60873 6.15926 6.0805 6.40093 6.5M3.47693 10.896C3.65987 10.747 3.85563 10.6145 4.06193 10.5M19.9379 10.5C20.1442 10.6145 20.34 10.747 20.5229 10.896M5.99993 18C5.31076 18.0003 4.6332 17.8226 4.03293 17.484M19.9669 17.484C19.3667 17.8226 18.6891 18.0003 17.9999 18" stroke="#5C00FF" stroke-width="2" stroke-linecap="round" stroke-linejoin="round"/>
</svg>
