<svg width="21" height="21" viewBox="0 0 21 21" fill="none" xmlns="http://www.w3.org/2000/svg">
<path d="M10.5 6.125V18.375M10.5 6.125C10.5 5.19674 10.1313 4.3065 9.47487 3.65013C8.8185 2.99375 7.92826 2.625 7 2.625H2.625C2.39294 2.625 2.17038 2.71719 2.00628 2.88128C1.84219 3.04538 1.75 3.26794 1.75 3.5V14.875C1.75 15.1071 1.84219 15.3296 2.00628 15.4937C2.17038 15.6578 2.39294 15.75 2.625 15.75H7.875C8.57119 15.75 9.23887 16.0266 9.73115 16.5188C10.2234 17.0111 10.5 17.6788 10.5 18.375M10.5 6.125C10.5 5.19674 10.8687 4.3065 11.5251 3.65013C12.1815 2.99375 13.0717 2.625 14 2.625H18.375C18.6071 2.625 18.8296 2.71719 18.9937 2.88128C19.1578 3.04538 19.25 3.26794 19.25 3.5V14.875C19.25 15.1071 19.1578 15.3296 18.9937 15.4937C18.8296 15.6578 18.6071 15.75 18.375 15.75H13.125C12.4288 15.75 11.7611 16.0266 11.2688 16.5188C10.7766 17.0111 10.5 17.6788 10.5 18.375" stroke="#878787" stroke-width="2" stroke-linecap="round" stroke-linejoin="round"/>
</svg>
