<svg width="16" height="19" viewBox="0 0 16 19" fill="none" xmlns="http://www.w3.org/2000/svg">
<path d="M14.4215 7.98951C14.4215 13.3683 8.91228 16.6821 7.76739 17.3133C7.70397 17.3483 7.63272 17.3666 7.56028 17.3666C7.48785 17.3666 7.4166 17.3483 7.35317 17.3133C6.20743 16.6821 0.699951 13.3683 0.699951 7.98951C0.699951 3.70153 3.27274 0.699951 7.56071 0.699951C11.8487 0.699951 14.4215 3.70153 14.4215 7.98951Z" stroke="#7C3AED" stroke-width="1.4" stroke-linecap="round" stroke-linejoin="round"/>
<path d="M4.13025 7.56051C4.13025 8.4703 4.49166 9.34283 5.13498 9.98615C5.77831 10.6295 6.65084 10.9909 7.56063 10.9909C8.47042 10.9909 9.34295 10.6295 9.98627 9.98615C10.6296 9.34283 10.991 8.4703 10.991 7.56051C10.991 6.65071 10.6296 5.77818 9.98627 5.13486C9.34295 4.49154 8.47042 4.13013 7.56063 4.13013C6.65084 4.13013 5.77831 4.49154 5.13498 5.13486C4.49166 5.77818 4.13025 6.65071 4.13025 7.56051V7.56051Z" stroke="#7C3AED" stroke-width="1.4" stroke-linecap="round" stroke-linejoin="round"/>
</svg>
