<svg width="30" height="30" viewBox="0 0 30 30" fill="none" xmlns="http://www.w3.org/2000/svg">
<path d="M5 26.25C4.3125 26.25 3.72417 26.0054 3.235 25.5162C2.74583 25.0271 2.50083 24.4383 2.5 23.75V4.5C2.5 4.35417 2.5625 4.255 2.6875 4.2025C2.8125 4.15 2.92708 4.17625 3.03125 4.28125L4.59375 5.84375L6.21875 4.1875C6.34375 4.0625 6.48958 4 6.65625 4C6.82292 4 6.96875 4.0625 7.09375 4.1875L8.75 5.84375L10.4062 4.1875C10.5312 4.0625 10.6771 4 10.8438 4C11.0104 4 11.1562 4.0625 11.2812 4.1875L12.9062 5.84375L14.5625 4.1875C14.6875 4.0625 14.8333 4 15 4C15.1667 4 15.3125 4.0625 15.4375 4.1875L17.0938 5.84375L18.7188 4.1875C18.8438 4.0625 18.9896 4 19.1562 4C19.3229 4 19.4688 4.0625 19.5938 4.1875L21.25 5.84375L22.9062 4.1875C23.0313 4.0625 23.1771 4 23.3438 4C23.5104 4 23.6562 4.0625 23.7812 4.1875L25.4062 5.84375L26.9688 4.28125C27.0729 4.17708 27.1875 4.15125 27.3125 4.20375C27.4375 4.25625 27.5 4.355 27.5 4.5V23.75C27.5 24.4375 27.255 25.0262 26.765 25.5162C26.275 26.0062 25.6867 26.2508 25 26.25H5ZM5 23.75H13.75V16.25H5V23.75ZM16.25 23.75H25V21.25H16.25V23.75ZM16.25 18.75H25V16.25H16.25V18.75ZM5 13.75H25V10H5V13.75Z" fill="white"/>
</svg>
