<svg width="21" height="21" viewBox="0 0 21 21" fill="none" xmlns="http://www.w3.org/2000/svg">
<path d="M11.0252 10.5L7.61269 7.08751C7.45228 6.9271 7.37207 6.72293 7.37207 6.47501C7.37207 6.2271 7.45228 6.02293 7.61269 5.86251C7.77311 5.7021 7.97728 5.62189 8.22519 5.62189C8.47311 5.62189 8.67728 5.7021 8.8377 5.86251L12.8627 9.88751C12.9502 9.97501 13.0123 10.0698 13.0491 10.1719C13.0858 10.274 13.1039 10.3833 13.1033 10.5C13.1027 10.6167 13.0847 10.7261 13.0491 10.8281C13.0135 10.9302 12.9514 11.025 12.8627 11.1125L8.8377 15.1375C8.67728 15.2979 8.47311 15.3781 8.22519 15.3781C7.97728 15.3781 7.77311 15.2979 7.61269 15.1375C7.45228 14.9771 7.37207 14.7729 7.37207 14.525C7.37207 14.2771 7.45228 14.0729 7.61269 13.9125L11.0252 10.5Z" fill="white"/>
</svg>
