<svg width="24" height="24" viewBox="0 0 24 24" fill="none" xmlns="http://www.w3.org/2000/svg">
<path d="M10.7998 12L14.6998 15.9C14.8832 16.0833 14.9748 16.3167 14.9748 16.6C14.9748 16.8833 14.8832 17.1167 14.6998 17.3C14.5165 17.4833 14.2832 17.575 13.9998 17.575C13.7165 17.575 13.4832 17.4833 13.2998 17.3L8.69982 12.7C8.59982 12.6 8.52915 12.4917 8.48782 12.375C8.44649 12.2583 8.42549 12.1333 8.42482 12C8.42415 11.8667 8.44515 11.7417 8.48782 11.625C8.53049 11.5083 8.60115 11.4 8.69982 11.3L13.2998 6.7C13.4832 6.51667 13.7165 6.425 13.9998 6.425C14.2832 6.425 14.5165 6.51667 14.6998 6.7C14.8832 6.88334 14.9748 7.11667 14.9748 7.4C14.9748 7.68334 14.8832 7.91667 14.6998 8.1L10.7998 12Z" fill="white"/>
</svg>
