<svg width="22" height="22" viewBox="0 0 22 22" fill="none" xmlns="http://www.w3.org/2000/svg">
<path d="M11.0001 3.66666C11.9725 3.66666 12.9052 4.05296 13.5928 4.7406C14.2804 5.42823 14.6667 6.36086 14.6667 7.33332C14.6667 8.30578 14.2804 9.23841 13.5928 9.92605C12.9052 10.6137 11.9725 11 11.0001 11C10.0276 11 9.09499 10.6137 8.40736 9.92605C7.71972 9.23841 7.33341 8.30578 7.33341 7.33332C7.33341 6.36086 7.71972 5.42823 8.40736 4.7406C9.09499 4.05296 10.0276 3.66666 11.0001 3.66666ZM11.0001 5.49999C10.5139 5.49999 10.0475 5.69314 9.70372 6.03696C9.3599 6.38078 9.16675 6.84709 9.16675 7.33332C9.16675 7.81955 9.3599 8.28587 9.70372 8.62969C10.0475 8.9735 10.5139 9.16666 11.0001 9.16666C11.4863 9.16666 11.9526 8.9735 12.2964 8.62969C12.6403 8.28587 12.8334 7.81955 12.8334 7.33332C12.8334 6.84709 12.6403 6.38078 12.2964 6.03696C11.9526 5.69314 11.4863 5.49999 11.0001 5.49999ZM11.0001 11.9167C13.4476 11.9167 18.3334 13.1358 18.3334 15.5833V18.3333H3.66675V15.5833C3.66675 13.1358 8.55258 11.9167 11.0001 11.9167ZM11.0001 13.6583C8.27758 13.6583 5.40841 14.9967 5.40841 15.5833V16.5917H16.5917V15.5833C16.5917 14.9967 13.7226 13.6583 11.0001 13.6583Z" fill="#667085"/>
</svg>
