<svg width="20" height="20" viewBox="0 0 20 20" fill="none" xmlns="http://www.w3.org/2000/svg">
<path d="M12.5001 16.5667C12.5334 16.8167 12.4501 17.0833 12.2584 17.2583C12.1813 17.3356 12.0898 17.3969 11.989 17.4387C11.8882 17.4805 11.7801 17.502 11.6709 17.502C11.5618 17.502 11.4537 17.4805 11.3529 17.4387C11.2521 17.3969 11.1605 17.3356 11.0834 17.2583L7.74178 13.9167C7.65094 13.8278 7.58187 13.7191 7.53995 13.5991C7.49803 13.4792 7.48439 13.3511 7.50011 13.225V8.95833L3.50844 3.85C3.37312 3.67628 3.31205 3.45605 3.3386 3.23744C3.36514 3.01883 3.47714 2.81962 3.65011 2.68333C3.80844 2.56667 3.98344 2.5 4.16678 2.5H15.8334C16.0168 2.5 16.1918 2.56667 16.3501 2.68333C16.5231 2.81962 16.6351 3.01883 16.6616 3.23744C16.6882 3.45605 16.6271 3.67628 16.4918 3.85L12.5001 8.95833V16.5667ZM5.86678 4.16667L9.16678 8.38333V12.9833L10.8334 14.65V8.375L14.1334 4.16667H5.86678Z" fill="#CCCCCC"/>
</svg>
