<svg width="30" height="30" viewBox="0 0 30 30" fill="none" xmlns="http://www.w3.org/2000/svg">
<path fill-rule="evenodd" clip-rule="evenodd" d="M12.0687 4.25004C13.0887 4.58162 14.0711 5.019 15 5.55504C15.9289 5.019 16.9113 4.58162 17.9312 4.25004C20.4862 3.44254 23.0312 3.58629 24.7225 5.27754C26.4137 6.96879 26.5575 9.51504 25.75 12.0688C25.4184 13.0887 24.981 14.0711 24.445 15C25.015 16.0038 25.4512 16.9875 25.75 17.9313C26.5575 20.485 26.4137 23.0313 24.7225 24.7225C23.0312 26.4138 20.485 26.5575 17.9312 25.75C16.9113 25.4185 15.9289 24.9811 15 24.445C14.0711 24.9811 13.0887 25.4185 12.0687 25.75C9.51498 26.5563 6.96873 26.4138 5.27748 24.7225C3.58623 23.0313 3.44373 20.485 4.24998 17.9313C4.54873 16.9863 4.98498 16.0038 5.55498 15C5.01894 14.0711 4.58156 13.0887 4.24998 12.0688C3.44373 9.51379 3.58748 6.96879 5.27748 5.27754C6.96873 3.58629 9.51498 3.44254 12.0687 4.25004ZM22.8625 17.3863C22.125 18.3588 21.27 19.3363 20.3037 20.3038C19.3899 21.221 18.4152 22.0755 17.3862 22.8613C17.8354 23.0663 18.2683 23.2346 18.685 23.3663C20.8075 24.0363 22.205 23.7038 22.955 22.9538C23.705 22.205 24.0375 20.8063 23.3675 18.685C23.2262 18.2417 23.0575 17.8075 22.8625 17.385V17.3863ZM7.13748 17.3863C6.9429 17.8084 6.77466 18.2421 6.63373 18.685C5.96373 20.8075 6.29623 22.205 7.04623 22.955C7.79498 23.705 9.19373 24.0363 11.315 23.3663C11.7317 23.2346 12.165 23.0663 12.615 22.8613C11.586 22.0755 10.6113 21.221 9.69748 20.3038C8.77983 19.39 7.92372 18.4153 7.13748 17.3863ZM15 8.50004C13.7328 9.3773 12.5494 10.3699 11.465 11.465C10.3698 12.5495 9.37724 13.7328 8.49998 15C9.37645 16.2671 10.3682 17.4505 11.4625 18.535C12.6662 19.7388 13.8575 20.7225 15 21.5C16.2672 20.6228 17.4506 19.6302 18.535 18.535C19.6297 17.4506 20.6219 16.2672 21.4987 15C20.624 13.7316 19.6322 12.5481 18.5362 11.465C17.4514 10.3698 16.2676 9.37724 15 8.50004ZM15 13.125C15.4973 13.125 15.9742 13.3226 16.3258 13.6742C16.6774 14.0258 16.875 14.5028 16.875 15C16.875 15.4973 16.6774 15.9742 16.3258 16.3259C15.9742 16.6775 15.4973 16.875 15 16.875C14.5027 16.875 14.0258 16.6775 13.6742 16.3259C13.3225 15.9742 13.125 15.4973 13.125 15C13.125 14.5028 13.3225 14.0258 13.6742 13.6742C14.0258 13.3226 14.5027 13.125 15 13.125ZM7.04498 7.04504C6.29498 7.79504 5.96373 9.19254 6.63373 11.315C6.7654 11.7317 6.93373 12.165 7.13873 12.615C7.87623 11.64 8.72998 10.6638 9.69748 9.69629C10.6109 8.77912 11.5852 7.92467 12.6137 7.13879C12.1917 6.94379 11.7579 6.77513 11.315 6.63379C9.19373 5.96379 7.79498 6.29629 7.04498 7.04504ZM18.685 6.63379C18.2683 6.76546 17.8354 6.93379 17.3862 7.13879C18.3587 7.87629 19.3362 8.73004 20.3037 9.69629C21.2214 10.6101 22.0763 11.5848 22.8625 12.6138C23.0675 12.1646 23.2354 11.7317 23.3662 11.315C24.0375 9.19254 23.705 7.79504 22.955 7.04504C22.205 6.29504 20.8075 5.96379 18.685 6.63379Z" fill="white"/>
</svg>
