<svg width="19" height="19" viewBox="0 0 19 19" fill="none" xmlns="http://www.w3.org/2000/svg">
<path d="M11.2849 16.7189L11.294 16.7252C12.081 17.2264 13.0155 17.444 13.9429 17.3421C14.8704 17.2403 15.7354 16.825 16.3949 16.165L16.9678 15.5921C17.0948 15.4652 17.1955 15.3145 17.2642 15.1487C17.333 14.9829 17.3683 14.8052 17.3683 14.6256C17.3683 14.4461 17.333 14.2684 17.2642 14.1026C17.1955 13.9368 17.0948 13.7861 16.9678 13.6592L14.5513 11.2445C14.4244 11.1175 14.2737 11.0168 14.1079 10.9481C13.9421 10.8793 13.7643 10.844 13.5848 10.844C13.4053 10.844 13.2276 10.8793 13.0618 10.9481C12.8959 11.0168 12.7453 11.1175 12.6184 11.2445C12.3622 11.5006 12.0147 11.6445 11.6524 11.6445C11.2901 11.6445 10.9426 11.5006 10.6864 11.2445L6.82246 7.3796C6.56632 7.12338 6.42242 6.77591 6.42242 6.41361C6.42242 6.05131 6.56632 5.70384 6.82246 5.44762C6.94943 5.32074 7.05015 5.17007 7.11887 5.00425C7.18759 4.83842 7.22296 4.66068 7.22296 4.48118C7.22296 4.30168 7.18759 4.12393 7.11887 3.95811C7.05015 3.79228 6.94943 3.64162 6.82246 3.51473L4.40681 1.09999C4.15058 0.843846 3.80312 0.699951 3.44082 0.699951C3.07852 0.699951 2.73105 0.843846 2.47483 1.09999L1.90098 1.67293C1.24113 2.33257 0.826065 3.19759 0.724376 4.12505C0.622686 5.05252 0.840454 5.98692 1.3417 6.77386L1.34716 6.78297C3.99434 10.6996 7.36779 14.0724 11.2849 16.7189V16.7189Z" stroke="#7C3AED" stroke-width="1.4" stroke-linecap="round" stroke-linejoin="round"/>
</svg>
