<svg width="30" height="30" viewBox="0 0 30 30" fill="none" xmlns="http://www.w3.org/2000/svg">
<g clip-path="url(#clip0_1_128)">
<path d="M21.6428 8.35714C23.9572 9.34613 26.5601 9.42268 28.9285 8.57142M8.5714 28.9286C9.42189 26.5526 9.34537 23.9434 8.35712 21.6214C7.58358 19.7726 7.3743 17.7362 7.7556 15.7686C8.13691 13.8011 9.09177 11.9903 10.5 10.5643C11.9435 9.13563 13.7778 8.16633 15.7714 7.77856" stroke="white" stroke-width="2.14286" stroke-linecap="round" stroke-linejoin="round"/>
<path d="M14.1428 22.2214C16.1466 21.8316 17.9891 20.8545 19.4357 19.4143M19.4357 19.4143C20.8464 17.9898 21.8029 16.1789 22.1843 14.2107C22.5657 12.2426 22.3549 10.2055 21.5786 8.35713C20.6104 6.03461 20.5569 3.43181 21.4286 1.07141M19.4357 19.4143L10.5857 10.5643M1.07141 21.4286C3.44088 20.5733 6.04789 20.6576 8.35713 21.6643" stroke="white" stroke-width="2.14286" stroke-linecap="round" stroke-linejoin="round"/>
</g>
<defs>
<clipPath id="clip0_1_128">
<rect width="30" height="30" fill="white"/>
</clipPath>
</defs>
</svg>
