<svg width="26" height="25" viewBox="0 0 26 25" fill="none" xmlns="http://www.w3.org/2000/svg">
<path d="M24.3514 3.82294L13.1014 0.0729406C12.8133 -0.0243135 12.5012 -0.0243135 12.2131 0.0729406L0.963079 3.82294C0.694643 3.91185 0.459245 4.07962 0.287612 4.30435C0.11598 4.52908 0.0160858 4.80033 0.000969663 5.08271C-0.000323221 5.1073 -0.000323221 5.13194 0.000969663 5.15653V14.5315C0.000969663 14.9045 0.149128 15.2622 0.412851 15.5259C0.676574 15.7896 1.03426 15.9378 1.40722 15.9378C1.78018 15.9378 2.13787 15.7896 2.40159 15.5259C2.66531 15.2622 2.81347 14.9045 2.81347 14.5315V7.10771L5.59199 8.03349C4.72967 9.68407 4.47342 11.5848 4.86783 13.4048C5.26223 15.2248 6.28233 16.8489 7.75058 17.9944C5.8292 18.9419 4.20311 20.3962 3.04784 22.2003C2.94381 22.3549 2.87155 22.5287 2.83526 22.7115C2.79897 22.8943 2.79937 23.0825 2.83645 23.2651C2.87353 23.4477 2.94654 23.6212 3.05125 23.7753C3.15595 23.9295 3.29025 24.0613 3.44635 24.1632C3.60244 24.265 3.77722 24.3347 3.96052 24.3684C4.14381 24.4021 4.33197 24.399 4.51406 24.3593C4.69615 24.3196 4.86854 24.2441 5.0212 24.1372C5.17386 24.0303 5.30374 23.8942 5.40331 23.7366C7.07558 21.1632 9.72753 19.6878 12.6572 19.6878C15.5869 19.6878 18.2389 21.1632 19.917 23.7366C20.0166 23.8942 20.1464 24.0303 20.2991 24.1372C20.4518 24.2441 20.6241 24.3196 20.8062 24.3593C20.9883 24.399 21.1765 24.4021 21.3598 24.3684C21.5431 24.3347 21.7179 24.265 21.874 24.1632C22.03 24.0613 22.1644 23.9295 22.2691 23.7753C22.3738 23.6212 22.4468 23.4477 22.4838 23.2651C22.5209 23.0825 22.5213 22.8943 22.485 22.7115C22.4487 22.5287 22.3765 22.3549 22.2725 22.2003C21.1161 20.3941 19.4878 18.9385 17.5639 17.9909C19.0321 16.8454 20.0522 15.2213 20.4466 13.4013C20.841 11.5812 20.5848 9.68055 19.7225 8.02997L24.3514 6.48661C24.631 6.39305 24.8742 6.21395 25.0465 5.97464C25.2187 5.73532 25.3114 5.4479 25.3114 5.15302C25.3114 4.85814 25.2187 4.57072 25.0465 4.3314C24.8742 4.09208 24.631 3.91298 24.3514 3.81943V3.82294ZM12.6572 2.88544L19.46 5.15653L12.6572 7.42411L5.86034 5.15653L12.6572 2.88544ZM17.8135 11.719C17.8136 12.5199 17.6272 13.3099 17.269 14.0262C16.9108 14.7425 16.3906 15.3655 15.7498 15.8459C15.1089 16.3263 14.365 16.6507 13.5769 16.7936C12.7889 16.9364 11.9784 16.8937 11.2097 16.6689C10.441 16.4441 9.73524 16.0432 9.14838 15.4982C8.56153 14.9532 8.1097 14.279 7.82871 13.529C7.54773 12.779 7.44532 11.9739 7.5296 11.1774C7.61387 10.381 7.88253 9.61509 8.31425 8.94052L12.2131 10.2401C12.5013 10.337 12.8132 10.337 13.1014 10.2401L17.0002 8.94052C17.532 9.76961 17.8143 10.7341 17.8135 11.719Z" fill="black"/>
</svg>
