<svg width="22" height="22" viewBox="0 0 22 22" fill="none" xmlns="http://www.w3.org/2000/svg">
<path d="M17.4166 3.66666H15.5833V2.74999C15.5833 2.50688 15.4867 2.27372 15.3148 2.10181C15.1429 1.92991 14.9097 1.83333 14.6666 1.83333C14.4235 1.83333 14.1903 1.92991 14.0184 2.10181C13.8465 2.27372 13.7499 2.50688 13.7499 2.74999V3.66666H8.24992V2.74999C8.24992 2.50688 8.15334 2.27372 7.98143 2.10181C7.80953 1.92991 7.57637 1.83333 7.33325 1.83333C7.09014 1.83333 6.85698 1.92991 6.68507 2.10181C6.51316 2.27372 6.41659 2.50688 6.41659 2.74999V3.66666H4.58325C3.85391 3.66666 3.15443 3.95639 2.63871 4.47212C2.12298 4.98784 1.83325 5.68732 1.83325 6.41666V17.4167C1.83325 18.146 2.12298 18.8455 2.63871 19.3612C3.15443 19.8769 3.85391 20.1667 4.58325 20.1667H17.4166C18.1459 20.1667 18.8454 19.8769 19.3611 19.3612C19.8769 18.8455 20.1666 18.146 20.1666 17.4167V6.41666C20.1666 5.68732 19.8769 4.98784 19.3611 4.47212C18.8454 3.95639 18.1459 3.66666 17.4166 3.66666ZM18.3333 17.4167C18.3333 17.6598 18.2367 17.8929 18.0648 18.0648C17.8929 18.2368 17.6597 18.3333 17.4166 18.3333H4.58325C4.34014 18.3333 4.10698 18.2368 3.93507 18.0648C3.76316 17.8929 3.66659 17.6598 3.66659 17.4167V11H18.3333V17.4167ZM18.3333 9.16666H3.66659V6.41666C3.66659 6.17355 3.76316 5.94039 3.93507 5.76848C4.10698 5.59657 4.34014 5.49999 4.58325 5.49999H6.41659V6.41666C6.41659 6.65978 6.51316 6.89293 6.68507 7.06484C6.85698 7.23675 7.09014 7.33333 7.33325 7.33333C7.57637 7.33333 7.80953 7.23675 7.98143 7.06484C8.15334 6.89293 8.24992 6.65978 8.24992 6.41666V5.49999H13.7499V6.41666C13.7499 6.65978 13.8465 6.89293 14.0184 7.06484C14.1903 7.23675 14.4235 7.33333 14.6666 7.33333C14.9097 7.33333 15.1429 7.23675 15.3148 7.06484C15.4867 6.89293 15.5833 6.65978 15.5833 6.41666V5.49999H17.4166C17.6597 5.49999 17.8929 5.59657 18.0648 5.76848C18.2367 5.94039 18.3333 6.17355 18.3333 6.41666V9.16666Z" fill="#878787"/>
</svg>
